<svg width="121" height="107" viewBox="0 0 121 107" fill="none" xmlns="http://www.w3.org/2000/svg">
<path d="M120.079 56.426L93.1587 102.919C92.0126 104.899 89.8849 106.222 87.4162 106.222H33.6058C31.1372 106.222 29.0153 104.899 27.8633 102.895L0.890473 56.426C-0.296824 54.3747 -0.296824 51.8473 0.890473 49.7959L27.8104 3.30327C28.9565 1.35187 31.1136 0 33.5529 0H87.4515C89.9201 0 92.042 1.346 93.194 3.32678L120.085 49.7901C121.272 51.8414 121.272 54.3747 120.079 56.426ZM52.2616 82.7111H68.7663C72.4281 82.7111 75.3963 79.7429 75.3963 76.0811C75.3963 72.4192 72.4281 69.451 68.7663 69.451H52.2616C48.5998 69.451 45.6316 72.4192 45.6316 76.0811C45.6316 79.7429 48.5998 82.7111 52.2616 82.7111ZM75.3081 23.6754H45.7198C42.0521 23.6754 39.0779 26.6495 39.0779 30.3172C39.0779 33.9849 42.0521 36.959 45.7198 36.959H75.3081C78.9758 36.959 81.9499 33.9849 81.9499 30.3172C81.9499 26.6495 78.9758 23.6754 75.3081 23.6754ZM87.3339 46.5514H33.6646C29.9969 46.5514 27.0228 49.5256 27.0228 53.1933C27.0228 56.8609 29.9969 59.8351 33.6646 59.8351H87.3339C91.0016 59.8351 93.9757 56.8609 93.9757 53.1933C93.9757 49.5256 91.0016 46.5514 87.3339 46.5514Z" fill="white"/>
<rect x="24.8672" y="15.8246" width="72.341" height="73.4714" fill="white"/>
<path d="M52.8395 22C59.849 22 65.4258 24.3535 69.5701 29.0606C71.412 31.1072 72.7678 33.4351 73.6376 36.0445C74.5586 38.6538 75.019 41.2888 75.019 43.9493C75.019 46.6098 74.5586 49.2447 73.6376 51.8541C72.7678 54.4634 71.412 56.7914 69.5701 58.8379C65.4258 63.545 59.849 65.8985 52.8395 65.8985H40.1765C39.409 65.8985 38.7439 65.6171 38.1811 65.0543C37.6183 64.4915 37.3369 63.8264 37.3369 63.0589V24.9163C37.3369 24.1489 37.6183 23.4837 38.1811 22.9209C38.7439 22.307 39.409 22 40.1765 22H52.8395ZM52.1488 60.5263C57.3675 60.5263 61.563 58.9914 64.7351 55.9216C67.8561 52.8518 69.4166 48.861 69.4166 43.9493C69.4166 39.0375 67.8561 35.0468 64.7351 31.9769C61.563 28.9071 57.3675 27.3722 52.1488 27.3722H43.0928V60.5263H52.1488Z" fill="#FEC629"/>
<path d="M67.8203 40.9619C74.8297 40.9619 80.4066 43.3154 84.5508 48.0225C86.3927 50.0691 87.7486 52.397 88.6184 55.0064C89.5393 57.6157 89.9998 60.2506 89.9998 62.9112C89.9998 65.5717 89.5393 68.2066 88.6184 70.816C87.7486 73.4253 86.3927 75.7533 84.5508 77.7998C80.4066 82.5069 74.8297 84.8604 67.8203 84.8604H55.1572C54.3898 84.8604 53.7247 84.579 53.1619 84.0162C52.5991 83.4534 52.3177 82.7883 52.3177 82.0208V43.8782C52.3177 43.1108 52.5991 42.4457 53.1619 41.8828C53.7247 41.2689 54.3898 40.9619 55.1572 40.9619H67.8203ZM67.1296 79.4882C72.3483 79.4882 76.5437 77.9533 79.7159 74.8835C82.8369 71.8137 84.3974 67.8229 84.3974 62.9112C84.3974 57.9994 82.8369 54.0087 79.7159 50.9388C76.5437 47.869 72.3483 46.3341 67.1296 46.3341H58.0736V79.4882H67.1296Z" fill="#FEC629"/>
</svg>
